<svg width="12" height="13" viewBox="0 0 12 13" fill="none" xmlns="http://www.w3.org/2000/svg">
<path d="M10.479 8.30104C10.581 8.03779 10.2895 7.81354 10.045 7.93054C9.55628 8.16294 9.02823 8.28248 8.4945 8.28154C6.402 8.28154 4.706 6.48104 4.706 4.25967C4.70523 3.50965 4.90193 2.77494 5.273 2.14175C5.415 1.89908 5.2445 1.56325 4.9845 1.63475C2.98 2.18888 1.5 4.12371 1.5 6.42525C1.5 9.15904 3.5875 11.375 6.163 11.375C8.113 11.375 9.783 10.1048 10.479 8.30104Z" fill="#F5F5F5"/>
<path d="M7.8055 1.6808C7.5405 1.48905 7.2245 1.83139 7.401 2.11847L7.716 2.63034C7.84379 2.83789 7.91198 3.08178 7.91198 3.33126C7.91198 3.58074 7.84379 3.82463 7.716 4.03218L7.401 4.54405C7.2245 4.83114 7.541 5.17347 7.806 4.98172L8.278 4.64047C8.46959 4.50204 8.69472 4.42816 8.925 4.42816C9.15529 4.42816 9.38042 4.50204 9.572 4.64047L10.0445 4.98172C10.3095 5.17347 10.6255 4.83114 10.4485 4.54405L10.1335 4.03218C10.0057 3.82463 9.93753 3.58074 9.93753 3.33126C9.93753 3.08178 10.0057 2.83789 10.1335 2.63034L10.4485 2.11847C10.6255 1.83139 10.3095 1.48905 10.044 1.6808L9.572 2.02205C9.38042 2.16048 9.15529 2.23436 8.925 2.23436C8.69472 2.23436 8.46959 2.16048 8.278 2.02205L7.8055 1.6808Z" fill="#F5F5F5"/>
</svg>
