<svg width="10" height="10" viewBox="0 0 10 10" fill="none" xmlns="http://www.w3.org/2000/svg">
<g clip-path="url(#clip0_424_43)">
<path d="M4.99995 1.78333C5.07362 1.78333 5.14427 1.75407 5.19636 1.70197C5.24846 1.64988 5.27772 1.57923 5.27772 1.50556V0.530555C5.27772 0.456884 5.24846 0.38623 5.19636 0.334136C5.14427 0.282043 5.07362 0.252777 4.99995 0.252777C4.92627 0.252777 4.85562 0.282043 4.80353 0.334136C4.75143 0.38623 4.72217 0.456884 4.72217 0.530555V1.50556C4.72217 1.57923 4.75143 1.64988 4.80353 1.70197C4.85562 1.75407 4.92627 1.78333 4.99995 1.78333Z" fill="#201F1F"/>
<path d="M4.99995 8.21667C4.92627 8.21667 4.85562 8.24594 4.80353 8.29803C4.75143 8.35013 4.72217 8.42078 4.72217 8.49445V9.46945C4.72217 9.54312 4.75143 9.61378 4.80353 9.66587C4.85562 9.71796 4.92627 9.74723 4.99995 9.74723C5.07362 9.74723 5.14427 9.71796 5.19636 9.66587C5.24846 9.61378 5.27772 9.54312 5.27772 9.46945V8.49445C5.27772 8.42078 5.24846 8.35013 5.19636 8.29803C5.14427 8.24594 5.07362 8.21667 4.99995 8.21667Z" fill="#201F1F"/>
<path d="M2.33332 2.72499C2.38646 2.77049 2.45481 2.79427 2.52472 2.79157C2.59463 2.78887 2.66095 2.75989 2.71042 2.71042C2.75989 2.66095 2.78887 2.59463 2.79157 2.52472C2.79427 2.45481 2.77049 2.38646 2.72499 2.33332L2.0361 1.64443C1.98296 1.59892 1.9146 1.57514 1.84469 1.57784C1.77478 1.58054 1.70847 1.60953 1.659 1.659C1.60953 1.70847 1.58054 1.77478 1.57784 1.84469C1.57514 1.9146 1.59892 1.98296 1.64443 2.0361L2.33332 2.72499Z" fill="#201F1F"/>
<path d="M7.66671 7.27502C7.61357 7.22951 7.54522 7.20573 7.47531 7.20843C7.4054 7.21113 7.33908 7.24011 7.28961 7.28958C7.24014 7.33905 7.21116 7.40537 7.20846 7.47528C7.20576 7.54519 7.22954 7.61354 7.27505 7.66668L7.96393 8.35557C8.01707 8.40108 8.08543 8.42486 8.15534 8.42216C8.22525 8.41946 8.29156 8.39048 8.34104 8.341C8.39051 8.29153 8.41949 8.22522 8.42219 8.15531C8.42489 8.0854 8.40111 8.01704 8.3556 7.9639L7.66671 7.27502Z" fill="#201F1F"/>
<path d="M1.78336 5.00001C1.78336 4.92634 1.7541 4.85568 1.702 4.80359C1.64991 4.75149 1.57926 4.72223 1.50559 4.72223H0.530585C0.456914 4.72223 0.38626 4.75149 0.334167 4.80359C0.282073 4.85568 0.252808 4.92634 0.252808 5.00001C0.252808 5.07368 0.282073 5.14433 0.334167 5.19643C0.38626 5.24852 0.456914 5.27778 0.530585 5.27778H1.50559C1.57926 5.27778 1.64991 5.24852 1.702 5.19643C1.7541 5.14433 1.78336 5.07368 1.78336 5.00001Z" fill="#201F1F"/>
<path d="M9.46945 4.72223H8.49445C8.42078 4.72223 8.35013 4.75149 8.29803 4.80359C8.24594 4.85568 8.21667 4.92634 8.21667 5.00001C8.21667 5.07368 8.24594 5.14433 8.29803 5.19643C8.35013 5.24852 8.42078 5.27778 8.49445 5.27778H9.46945C9.54312 5.27778 9.61378 5.24852 9.66587 5.19643C9.71796 5.14433 9.74723 5.07368 9.74723 5.00001C9.74723 4.92634 9.71796 4.85568 9.66587 4.80359C9.61378 4.75149 9.54312 4.72223 9.46945 4.72223Z" fill="#201F1F"/>
<path d="M2.33332 7.27502L1.64443 7.9639C1.59892 8.01704 1.57514 8.0854 1.57784 8.15531C1.58054 8.22522 1.60953 8.29153 1.659 8.341C1.70847 8.39048 1.77478 8.41946 1.84469 8.42216C1.9146 8.42486 1.98296 8.40108 2.0361 8.35557L2.72499 7.66668C2.77049 7.61354 2.79427 7.54519 2.79157 7.47528C2.78887 7.40537 2.75989 7.33905 2.71042 7.28958C2.66095 7.24011 2.59463 7.21113 2.52472 7.20843C2.45481 7.20573 2.38646 7.22951 2.33332 7.27502Z" fill="#201F1F"/>
<path d="M7.66671 2.72499L8.3556 2.0361C8.40111 1.98296 8.42489 1.9146 8.42219 1.84469C8.41949 1.77478 8.39051 1.70847 8.34104 1.659C8.29156 1.60953 8.22525 1.58054 8.15534 1.57784C8.08543 1.57514 8.01707 1.59892 7.96393 1.64443L7.27505 2.33332C7.22954 2.38646 7.20576 2.45481 7.20846 2.52472C7.21116 2.59463 7.24014 2.66095 7.28961 2.71042C7.33908 2.75989 7.4054 2.78887 7.47531 2.79157C7.54522 2.79427 7.61357 2.77049 7.66671 2.72499Z" fill="#201F1F"/>
<path d="M4.99995 7.77778C6.53407 7.77778 7.77772 6.53413 7.77772 5.00001C7.77772 3.46588 6.53407 2.22223 4.99995 2.22223C3.46582 2.22223 2.22217 3.46588 2.22217 5.00001C2.22217 6.53413 3.46582 7.77778 4.99995 7.77778Z" fill="#201F1F"/>
</g>
<defs>
<clipPath id="clip0_424_43">
<rect width="10" height="10" fill="white"/>
</clipPath>
</defs>
</svg>
